<svg width="20" height="20" viewBox="0 0 20 20" fill="none" xmlns="http://www.w3.org/2000/svg">
<path fill-rule="evenodd" clip-rule="evenodd" d="M3.72292 2.875C3.36519 2.875 3.0752 3.165 3.0752 3.52273V8.70455C3.0752 9.06228 3.36519 9.35227 3.72292 9.35227H8.90474C9.26247 9.35227 9.55247 9.06228 9.55247 8.70455V3.52273C9.55247 3.165 9.26247 2.875 8.90474 2.875H3.72292ZM4.37065 8.05682V4.17045H8.25701V8.05682H4.37065ZM11.4956 2.875C11.1379 2.875 10.8479 3.165 10.8479 3.52273V8.70455C10.8479 9.06228 11.1379 9.35227 11.4956 9.35227H16.6775C17.0352 9.35227 17.3252 9.06228 17.3252 8.70455V3.52273C17.3252 3.165 17.0352 2.875 16.6775 2.875H11.4956ZM12.1434 8.05682V4.17045H16.0297V8.05682H12.1434ZM3.0752 11.2955C3.0752 10.9377 3.36519 10.6477 3.72292 10.6477H8.90474C9.26247 10.6477 9.55247 10.9377 9.55247 11.2955V16.4773C9.55247 16.835 9.26247 17.125 8.90474 17.125H3.72292C3.36519 17.125 3.0752 16.835 3.0752 16.4773V11.2955ZM4.37065 11.9432V15.8295H8.25701V11.9432H4.37065ZM11.4956 10.6477C11.1379 10.6477 10.8479 10.9377 10.8479 11.2955V16.4773C10.8479 16.835 11.1379 17.125 11.4956 17.125H16.6775C17.0352 17.125 17.3252 16.835 17.3252 16.4773V11.2955C17.3252 10.9377 17.0352 10.6477 16.6775 10.6477H11.4956ZM12.1434 15.8295V11.9432H16.0297V15.8295H12.1434Z" fill="white"/>
</svg>
